<svg xmlns="http://www.w3.org/2000/svg" id="Layer_1" enable-background="new 0 0 512 512" height="512" viewBox="0 0 512 512" width="512">
  <path d="m460.694 6.22c-3.03-3.92-7.7-6.22-12.66-6.22h-384c-10.46 0-18.122 9.896-15.48 20.04 48.872 187.443 47.48 272.946 47.48 443.96 0 26.47 21.53 48 48 48h224c26.47 0 48-21.53 48-48 0-102.56-3.903-206.537 25.39-351.04 19.751-96.152 27.56-96.015 19.27-106.74zm-33.37 25.78c-29.324 114.039-32.556 177.082-34.69 183.47v.04c-14.712 103.062-15.172 111.707-26.49 133.76-5.177 11.658-19.162 29.611-33.45 40.47-36.463 29.677-93.434 36.142-139.57 9.35-33.067-19.286-54.556-52.783-59.64-88.41-19.751-131.298-23.374-181.784-48.38-277.28-.56-2.178-26.712-1.4 342.22-1.4z"/>
</svg>